<?xml version="1.0" encoding="UTF-8" standalone="no"?>
<!-- Created with Inkscape (http://www.inkscape.org/) -->

<svg
   xmlns:dc="http://purl.org/dc/elements/1.1/"
   xmlns:cc="http://creativecommons.org/ns#"
   xmlns:rdf="http://www.w3.org/1999/02/22-rdf-syntax-ns#"
   xmlns:svg="http://www.w3.org/2000/svg"
   xmlns="http://www.w3.org/2000/svg"
   xmlns:sodipodi="http://sodipodi.sourceforge.net/DTD/sodipodi-0.dtd"
   xmlns:inkscape="http://www.inkscape.org/namespaces/inkscape"
   id="svg2"
   version="1.1"
   inkscape:version="0.48.3.1 r9886"
   width="371"
   height="145"
   sodipodi:docname="logoCHISTERA2014.png">
  <metadata
     id="metadata8">
    <rdf:RDF>
      <cc:Work
         rdf:about="">
        <dc:format>image/svg+xml</dc:format>
        <dc:type
           rdf:resource="http://purl.org/dc/dcmitype/StillImage" />
        <dc:title></dc:title>
      </cc:Work>
    </rdf:RDF>
  </metadata>
  <defs
     id="defs6" />
  <sodipodi:namedview
     pagecolor="#ffffff"
     bordercolor="#666666"
     borderopacity="1"
     objecttolerance="10"
     gridtolerance="10"
     guidetolerance="10"
     inkscape:pageopacity="0"
     inkscape:pageshadow="2"
     inkscape:window-width="1680"
     inkscape:window-height="1001"
     id="namedview4"
     showgrid="false"
     inkscape:zoom="1.3207547"
     inkscape:cx="355.34712"
     inkscape:cy="14.069341"
     inkscape:window-x="0"
     inkscape:window-y="25"
     inkscape:window-maximized="1"
     inkscape:current-layer="svg2" />
  <flowRoot
     xml:space="preserve"
     id="flowRoot3180"
     style="fill:black;stroke:none;stroke-opacity:1;stroke-width:1px;stroke-linejoin:miter;stroke-linecap:butt;fill-opacity:1;font-family:Times New Roman;font-style:normal;font-weight:normal;font-size:12px;-inkscape-font-specification:'Times New Roman,';font-stretch:normal;font-variant:normal;text-anchor:start;text-align:start;writing-mode:lr;line-height:125%;letter-spacing:0px;word-spacing:0px"><flowRegion
       id="flowRegion3182"><rect
         id="rect3184"
         width="42.027401"
         height="13.652211"
         x="125.27912"
         y="25.07469" /></flowRegion><flowPara
       id="flowPara3186"></flowPara></flowRoot>  <text
     xml:space="preserve"
     style="font-size:12px;font-style:normal;font-variant:normal;font-weight:normal;font-stretch:normal;text-align:start;line-height:125%;letter-spacing:0px;word-spacing:0px;writing-mode:lr-tb;text-anchor:start;fill:#000000;fill-opacity:1;stroke:none;font-family:Times New Roman;-inkscape-font-specification:'Times New Roman,'"
     x="411.97556"
     y="17.043978"
     id="text3207"
     sodipodi:linespacing="125%"><tspan
       sodipodi:role="line"
       id="tspan3209"></tspan></text>
  <g
     id="g3359"
     transform="translate(12.871429,8.3285729)">
    <g
       transform="translate(-20.879853,14.455283)"
       id="g2991">
      <g
         id="g3355">
        <path
           style="fill:#73ceef;fill-opacity:1;stroke:none"
           d="M 53.023807,91.880411 C 41.573405,78.535942 33.747244,62.294041 29.076595,45.418568 27.404333,39.949928 27.794989,34.659336 30.9684,29.179389 34.920944,21.312868 41.339811,15.975867 48.49672,11.821961 51.939462,9.8900766 55.090812,8.1243448 59.051557,6.0239514 63.67266,3.7243197 68.67017,1.31709 73.159114,-0.87851664 80.497641,-3.1970949 82.470712,1.9648873 75.441091,5.8500822 69.382218,10.984859 63.792398,16.635027 58.879848,22.140591 c -3.464025,4.675016 -4.674866,7.971265 -7.052874,13.110582 -2.514483,6.777602 -1.85557,11.75675 -2.07593,18.074368 -0.08615,3.812916 1.13028,8.93832 2.29193,13.513511 2.591698,6.259755 5.780554,16.770947 6.789218,24.344239 -0.404366,4.094399 -3.418999,2.838119 -5.808385,0.69712 z m 55.442503,-53.96716 c -4.35304,-4.068013 -5.74576,-11.308795 -1.8778,-16.160282 5.29027,-6.837209 13.28435,-2.060195 13.78351,3.904053 0.50356,4.478412 0.86819,7.196123 -2.08668,10.363447 -1.59657,1.984012 -3.38929,2.786551 -5.44969,3.022914 -1.12785,-0.05714 -3.34059,-0.641843 -4.36934,-1.130132 z"
           id="path3007"
           inkscape:connector-curvature="0"
           sodipodi:nodetypes="ccccccccccccccccccc" />
        <path
           style="fill:#599091;fill-opacity:1;stroke:none"
           d="M 78.978963,91.154302 C 65.888872,82.08613 61.964601,72.695913 62.04055,56.781531 c 0.0894,-2.837056 1.360442,-8.083802 2.387923,-10.857347 3.380393,-9.12491 9.579148,-12.193692 16.028426,-7.659146 2.966129,2.071395 6.184596,5.58989 6.725685,9.302953 1.342787,9.21448 -1.397552,10.528864 -6.019749,19.851098 -2.077528,5.398412 0.123158,10.464471 5.461837,13.857907 3.220006,1.204607 6.17232,1.338452 10.730777,-0.803071 5.583841,-3.355869 10.801291,-8.440421 14.118871,-8.480865 2.9807,2.896141 0.97356,8.88792 -1.62442,10.553773 -1.58162,2.889425 -4.80391,5.592295 -9.852633,7.982982 -3.889441,1.547415 -6.443166,2.178993 -12.785057,1.901322 -3.213945,-0.175234 -7.227275,-0.415622 -8.233247,-1.276835 z"
           id="path3003"
           inkscape:connector-curvature="0"
           sodipodi:nodetypes="ccscscccccccc" />
      </g>
    </g>
    <g
       id="g3335">
      <g
         transform="scale(0.94982535,1.0528251)"
         style="font-size:14.52449989px;font-style:normal;font-variant:normal;font-weight:normal;font-stretch:normal;text-align:start;line-height:125%;letter-spacing:0px;word-spacing:0px;writing-mode:lr-tb;text-anchor:start;fill:#000000;fill-opacity:1;stroke:none;font-family:Nimbus Sans L;-inkscape-font-specification:Nimbus Sans L"
         id="text3176-4">
        <path
           d="m 153.3971,74.777094 c -2.83563,-3.600783 -5.69361,-3.613867 -13.53683,-3.613867 -9.35377,0 -14.81499,6.158399 -14.81499,16.84842 0,10.341433 5.40312,16.383633 14.69879,16.383633 7.61083,0 13.74325,0.37924 13.65303,-7.623912 l -4.40316,-0.508518 c -3.01857,1.778523 -5.40075,2.033214 -8.34628,1.058841 -3.84312,-1.271296 -6.0595,-3.20976 -6.0595,-9.310044 0,-2.962995 -0.26452,-4.734667 0.72314,-6.593801 0.92957,-1.742938 2.22872,-3.209357 4.49087,-3.689545 3.59341,-0.762777 7.41671,0.297354 9.75543,0.86268 l 3.55767,-0.254259"
           style="font-size:58.09799957px;font-weight:bold;font-family:Nimbus Sans L;-inkscape-font-specification:Nimbus Sans L Bold"
           id="path3260"
           inkscape:connector-curvature="0"
           sodipodi:nodetypes="csssccsscscc" />
      </g>
      <text
         xml:space="preserve"
         style="font-size:15.40101337px;font-style:normal;font-variant:normal;font-weight:normal;font-stretch:normal;text-align:start;line-height:125%;letter-spacing:0px;word-spacing:0px;writing-mode:lr-tb;text-anchor:start;fill:#000000;fill-opacity:1;stroke:none;font-family:Nimbus Sans L;-inkscape-font-specification:Nimbus Sans L"
         x="152.76131"
         y="104.52789"
         id="text3176-8"
         sodipodi:linespacing="125%"
         transform="scale(0.96099188,1.0405915)"><tspan
           sodipodi:role="line"
           id="tspan3178-3"
           x="152.76131"
           y="104.52789"
           style="font-size:61.6040535px;font-style:normal;font-variant:normal;font-weight:bold;font-stretch:normal;font-family:Nimbus Sans L;-inkscape-font-specification:Nimbus Sans L Bold">h</tspan></text>
      <text
         xml:space="preserve"
         style="font-size:14.27546787px;font-style:normal;font-variant:normal;font-weight:normal;font-stretch:normal;text-align:start;line-height:125%;letter-spacing:0px;word-spacing:0px;writing-mode:lr-tb;text-anchor:start;fill:#000000;fill-opacity:1;stroke:none;font-family:Nimbus Sans L;-inkscape-font-specification:Nimbus Sans L"
         x="194.99313"
         y="100.43915"
         id="text3176-44"
         sodipodi:linespacing="125%"
         transform="scale(0.92796906,1.0776221)"><tspan
           sodipodi:role="line"
           id="tspan3178-2"
           x="194.99313"
           y="100.43915"
           style="font-size:57.10187149px;font-style:normal;font-variant:normal;font-weight:bold;font-stretch:normal;font-family:Nimbus Sans L;-inkscape-font-specification:Nimbus Sans L Bold">i</tspan></text>
      <g
         transform="scale(0.93075032,1.074402)"
         style="font-size:14.23281002px;font-style:normal;font-variant:normal;font-weight:normal;font-stretch:normal;text-align:start;line-height:125%;letter-spacing:0px;word-spacing:0px;writing-mode:lr-tb;text-anchor:start;fill:#000000;fill-opacity:1;stroke:none;font-family:Nimbus Sans L;-inkscape-font-specification:Nimbus Sans L"
         id="text3176-1">
        <path
           d="m 223.58701,69.484938 c -7.79957,0 -12.63873,3.928262 -12.63873,10.247623 0,2.049523 0.62624,3.814394 1.70793,5.009949 1.0817,1.081693 2.04953,1.594076 5.00995,2.561906 l 9.50752,2.960424 c 1.99259,0.626243 2.67577,1.252489 2.67577,2.504975 0,1.878729 -2.22032,3.017356 -5.92085,3.017356 -2.04952,0 -4.56335,0.847245 -5.58811,0.164071 -0.85397,-0.626243 -2.9212,0.491581 -3.26279,-1.159423 l -3.19787,-0.249153 c 0.22773,6.717884 3.1675,7.506944 12.50422,7.506944 4.26984,0 7.51492,-0.9109 9.79217,-2.732702 2.27725,-1.821798 3.6436,-4.668365 3.6436,-7.685718 0,-3.985183 -1.9926,-6.547094 -6.03471,-7.742648 l -8.35119,-3.152647 c -1.93271,-0.184868 -3.07723,-1.138626 -3.07723,-2.391112 0,-1.707935 0.38376,-2.597409 3.17339,-2.597409 5.54003,0 8.28158,-0.626871 12.36502,0.916993 l -0.36729,-5.979671"
           style="font-size:56.93124008px;font-weight:bold;font-family:Nimbus Sans L;-inkscape-font-specification:Nimbus Sans L Bold"
           id="path3263"
           inkscape:connector-curvature="0"
           sodipodi:nodetypes="cscccsscccsssccsscc" />
      </g>
      <g
         transform="scale(1.0391238,0.96234924)"
         style="font-size:15.89003181px;font-style:normal;font-variant:normal;font-weight:normal;font-stretch:normal;text-align:start;line-height:125%;letter-spacing:0px;word-spacing:0px;writing-mode:lr-tb;text-anchor:start;fill:#000000;fill-opacity:1;stroke:none;font-family:Nimbus Sans L;-inkscape-font-specification:Nimbus Sans L"
         id="text3176-49">
        <path
           d="m 233.79309,79.124889 -4.95769,0 0,-7.547238 -8.89842,0 0,7.547238 -4.38565,0 0,5.911092 4.38565,0 0,21.101969 c 0,5.4026 2.86021,8.07213 8.70774,8.07213 1.97036,0 3.55937,-0.19068 5.14837,-0.69916 l 0,-6.22889 c -0.88984,0.12712 -1.39832,0.19068 -2.03392,0.19068 -2.35173,0 -2.92377,-0.69917 -2.92377,-3.75005 l 0,-18.686679 4.95769,0 0,-5.911092"
           style="font-size:63.56012726px;font-weight:bold;font-family:Nimbus Sans L;-inkscape-font-specification:Nimbus Sans L Bold"
           id="path3327"
           inkscape:connector-curvature="0"
           sodipodi:nodetypes="ccccccccssccssccc" />
      </g>
      <text
         xml:space="preserve"
         style="font-size:10.27572441px;font-style:normal;font-variant:normal;font-weight:normal;font-stretch:normal;text-align:start;line-height:125%;letter-spacing:0px;word-spacing:0px;writing-mode:lr-tb;text-anchor:start;fill:#000000;fill-opacity:1;stroke:none;font-family:Nimbus Sans L;-inkscape-font-specification:Nimbus Sans L"
         x="293.21033"
         y="86.00695"
         id="text3176-9"
         sodipodi:linespacing="125%"
         transform="scale(0.83424309,1.1986914)"><tspan
           sodipodi:role="line"
           id="tspan3178-6"
           x="293.21033"
           y="86.00695"
           style="font-size:41.10289764px;font-style:normal;font-variant:normal;font-weight:bold;font-stretch:normal;font-family:Nimbus Sans L;-inkscape-font-specification:Nimbus Sans L Bold">-</tspan></text>
      <g
         transform="scale(0.9629123,1.0385162)"
         style="font-size:14.72462368px;font-style:normal;font-variant:normal;font-weight:normal;font-stretch:normal;text-align:start;line-height:125%;letter-spacing:0px;word-spacing:0px;writing-mode:lr-tb;text-anchor:start;fill:#000000;fill-opacity:1;stroke:none;font-family:Nimbus Sans L;-inkscape-font-specification:Nimbus Sans L"
         id="text3176-2">
        <path
           d="m 297.36896,90.136886 c -0.80165,-3.746331 0.28528,-5.449226 -1.45597,-8.7461 -2.12034,-5.772046 -7.24452,-9.247063 -13.66445,-9.247063 -9.12926,0 -14.72462,6.596642 -14.72462,17.257259 0,10.189429 5.53646,16.432678 14.54792,16.432678 7.12672,0 15.67879,0.0602 16.11463,-7.729611 l -4.79198,-0.773287 c -2.94728,2.017108 -8.02433,2.200761 -11.02815,2.200761 -2.35594,0 -4.2407,-1.001276 -5.41866,-2.76823 -0.76568,-1.177968 -1.06018,-4.13811 -1.17797,-7.141931 m 0.11779,-3.930986 c 0.53009,-4.829671 2.59154,-7.244514 6.24324,-7.244514 2.06145,0 3.9462,1.001276 5.12417,2.650432 0.76568,1.177969 1.11907,2.41484 1.29577,4.594082 l -12.66318,0"
           style="font-size:58.89849472px;font-weight:bold;font-family:Nimbus Sans L;-inkscape-font-specification:Nimbus Sans L Bold"
           id="path3330"
           inkscape:connector-curvature="0"
           sodipodi:nodetypes="ccsssccscccsccc" />
      </g>
      <text
         xml:space="preserve"
         style="font-size:15.9971199px;font-style:normal;font-variant:normal;font-weight:normal;font-stretch:normal;text-align:start;line-height:125%;letter-spacing:0px;word-spacing:0px;writing-mode:lr-tb;text-anchor:start;fill:#000000;fill-opacity:1;stroke:none;font-family:Nimbus Sans L;-inkscape-font-specification:Nimbus Sans L"
         x="274.22787"
         y="113.78808"
         id="text3176-87"
         sodipodi:linespacing="125%"
         transform="scale(1.0461268,0.95590706)"><tspan
           sodipodi:role="line"
           id="tspan3178-9"
           x="274.22787"
           y="113.78808"
           style="font-size:63.98847961px;font-style:normal;font-variant:normal;font-weight:bold;font-stretch:normal;font-family:Nimbus Sans L;-inkscape-font-specification:Nimbus Sans L Bold">r</tspan></text>
      <g
         transform="scale(0.98150549,1.018843)"
         style="font-size:15.00894642px;font-style:normal;font-variant:normal;font-weight:normal;font-stretch:normal;text-align:start;line-height:125%;letter-spacing:0px;word-spacing:0px;writing-mode:lr-tb;text-anchor:start;fill:#000000;fill-opacity:1;stroke:none;font-family:Nimbus Sans L;-inkscape-font-specification:Nimbus Sans L"
         id="text3176-45">
        <path
           d="m 349.80031,102.17634 c -1.66964,-0.21966 -2.98042,-0.57424 -2.98042,-1.97656 l 0,-16.959775 c 0,-6.603929 -4.50269,-9.96594 -13.2679,-9.96594 -4.6742,0 -8.69146,0.569351 -12.77733,2.819024 l 1.11158,5.206979 c 3.50665,-3.831918 12.2524,-4.521013 16.09096,0.281462 0.68255,1.124355 0.19786,3.92229 -0.65432,4.867038 -1.14068,0.600357 -1.30943,-0.02666 -5.4519,0.633728 l -4.42269,0.971927 c -6.80952,1.637999 -9.06356,4.382619 -9.06356,10.206084 0,2.761643 1.35903,4.671433 2.85992,6.292403 1.86111,1.92114 4.68279,3.06182 7.56451,3.06182 3.60214,0 6.0845,-2.21118 9.00214,-5.73746 0.98837,3.46918 3.02468,5.09136 3.75693,5.03011 l 8.28171,0.0697 M 337.77537,92.602145 c 0,4.862894 -1.58181,8.228345 -5.84435,8.228345 -2.82168,0 -4.56272,-1.500897 -4.56272,-3.902326 0,-2.5215 0.29459,-3.087909 2.61957,-4.923048 2.1344,-1.203731 5.35637,-0.413927 7.62915,-0.260435"
           style="font-size:60.03578568px;font-weight:bold;font-family:Nimbus Sans L;-inkscape-font-specification:Nimbus Sans L Bold"
           id="path3333"
           inkscape:connector-curvature="0"
           sodipodi:nodetypes="csssccccccscsccccsscc" />
      </g>
    </g>
  </g>
</svg>
