<?xml version="1.0" encoding="UTF-8" standalone="no"?>
<!-- Generated by graphviz version 2.36.0 (20140111.2315)
 -->

<!-- Title: %3 Pages: 1 -->

<svg
   xmlns:dc="http://purl.org/dc/elements/1.1/"
   xmlns:cc="http://creativecommons.org/ns#"
   xmlns:rdf="http://www.w3.org/1999/02/22-rdf-syntax-ns#"
   xmlns:svg="http://www.w3.org/2000/svg"
   xmlns="http://www.w3.org/2000/svg"
   xmlns:sodipodi="http://sodipodi.sourceforge.net/DTD/sodipodi-0.dtd"
   xmlns:inkscape="http://www.inkscape.org/namespaces/inkscape"
   width="850.19482"
   height="419.50223"
   viewBox="0 0 680.15586 336.26744"
   id="svg2"
   version="1.1"
   inkscape:version="0.48.4 r9939"
   sodipodi:docname="PRU_U.pdf">
  <metadata
     id="metadata270">
    <rdf:RDF>
      <cc:Work
         rdf:about="">
        <dc:format>image/svg+xml</dc:format>
        <dc:type
           rdf:resource="http://purl.org/dc/dcmitype/StillImage" />
        <dc:title></dc:title>
      </cc:Work>
    </rdf:RDF>
  </metadata>
  <defs
     id="defs268">
    <marker
       inkscape:stockid="Arrow1Lstart"
       orient="auto"
       refY="0"
       refX="0"
       id="Arrow1Lstart"
       style="overflow:visible">
      <path
         id="path4210"
         d="M 0,0 5,-5 -12.5,0 5,5 0,0 z"
         style="fill-rule:evenodd;stroke:#000000;stroke-width:1pt"
         transform="matrix(0.8,0,0,0.8,10,0)"
         inkscape:connector-curvature="0" />
    </marker>
    <marker
       inkscape:stockid="Arrow1Lend"
       orient="auto"
       refY="0"
       refX="0"
       id="Arrow1Lend"
       style="overflow:visible">
      <path
         id="path4213"
         d="M 0,0 5,-5 -12.5,0 5,5 0,0 z"
         style="fill-rule:evenodd;stroke:#000000;stroke-width:1pt"
         transform="matrix(-0.8,0,0,-0.8,-10,0)"
         inkscape:connector-curvature="0" />
    </marker>
    <marker
       inkscape:stockid="Arrow1Lend"
       orient="auto"
       refY="0"
       refX="0"
       id="Arrow1Lend-6"
       style="overflow:visible">
      <path
         id="path4213-2"
         d="M 0,0 5,-5 -12.5,0 5,5 0,0 z"
         style="fill-rule:evenodd;stroke:#000000;stroke-width:1pt"
         transform="matrix(-0.8,0,0,-0.8,-10,0)"
         inkscape:connector-curvature="0" />
    </marker>
  </defs>
  <sodipodi:namedview
     pagecolor="#ffffff"
     bordercolor="#666666"
     borderopacity="1"
     objecttolerance="10"
     gridtolerance="10"
     guidetolerance="10"
     inkscape:pageopacity="0"
     inkscape:pageshadow="2"
     inkscape:window-width="1680"
     inkscape:window-height="1001"
     id="namedview266"
     showgrid="false"
     inkscape:zoom="2.3144272"
     inkscape:cx="256.13633"
     inkscape:cy="267.85906"
     inkscape:window-x="0"
     inkscape:window-y="25"
     inkscape:window-maximized="1"
     inkscape:current-layer="svg2"
     showguides="true"
     inkscape:guide-bbox="true"
     fit-margin-left="1"
     fit-margin-top="1"
     fit-margin-right="1"
     fit-margin-bottom="1" />
  <g
     id="g3430"
     transform="translate(0.85069724,-106.69841)">
    <g
       transform="translate(4,238.477)"
       id="clust1"
       class="cluster">
      <title
         id="title10">cluster1</title>
      <polygon
         points="76,-130.477 146,-130.477 146,-37.4766 76,-37.4766 76,-37.4766 "
         id="polygon12"
         style="fill:none;stroke:#000000" />
      <text
         x="111"
         y="-115.277"
         font-size="14.00"
         id="text14"
         style="font-size:14px;text-anchor:middle;font-family:'Times,serif'">Layer 1</text>
    </g>
  </g>
  <g
     id="g3424"
     transform="matrix(1.0561947,0,0,-1.149756,-17.693542,267.1689)">
    <g
       transform="translate(4,238.477)"
       id="clust2"
       class="cluster">
      <title
         id="title17">cluster2</title>
      <polygon
         points="648,-10.4766 326,-10.4766 326,-10.4766 326,-139.477 648,-139.477 "
         id="polygon19"
         style="fill:none;stroke:#000000"
         transform="matrix(1,0,0,-1,0,-149.9536)" />
      <text
         x="487"
         y="25.6766"
         font-size="14.00"
         id="text21"
         style="font-size:14px;text-anchor:middle;font-family:'Times,serif'"
         transform="scale(1,-1)">Layer 2</text>
    </g>
  </g>
  <g
     id="g3418"
     transform="matrix(1.0555062,0,0,1,-464.779,141.73381)">
    <g
       transform="translate(4,238.477)"
       id="clust3"
       class="cluster">
      <title
         id="title24">cluster3</title>
      <polygon
         points="1072,-193.477 1072,-64.4766 746,-64.4766 746,-64.4766 746,-193.477 "
         id="polygon26"
         style="fill:none;stroke:#000000" />
      <text
         x="909"
         y="-178.27699"
         font-size="14.00"
         id="text28"
         style="font-size:14px;text-anchor:middle;font-family:'Times,serif'">Layer 3</text>
    </g>
  </g>
  <g
     id="g3412"
     transform="translate(-1097.3729,111.73381)">
    <g
       transform="translate(4,238.477)"
       id="clust4"
       class="cluster">
      <title
         id="title31">cluster4</title>
      <polygon
         points="1310,-155.477 1310,-34.4766 1094,-34.4766 1094,-34.4766 1094,-155.477 "
         id="polygon33"
         style="fill:none;stroke:#000000" />
      <text
         x="1202"
         y="-140.27699"
         font-size="14.00"
         id="text35"
         style="font-size:14px;text-anchor:middle;font-family:'Times,serif'">Layer 4</text>
    </g>
  </g>
  <g
     class="node"
     id="node1"
     transform="translate(4.8506973,122.15956)">
    <title
       id="title38">Init</title>
    <ellipse
       style="fill:none;stroke:#000000"
       sodipodi:ry="22.998699"
       sodipodi:rx="22.998699"
       sodipodi:cy="-63.476601"
       sodipodi:cx="23"
       d="m 45.998699,-63.476601 c 0,12.701831 -10.296868,22.9987 -22.998699,22.9987 -12.701831,0 -22.99869919,-10.296869 -22.99869919,-22.9987 C 0.00130081,-76.178431 10.298169,-86.4753 23,-86.4753 c 12.701831,0 22.998699,10.296869 22.998699,22.998699 z"
       id="ellipse40"
       ry="22.998699"
       rx="22.998699"
       cy="-63.476601"
       cx="23" />
    <polyline
       style="fill:none;stroke:#000000"
       id="polyline42"
       points="38.0455,-80.5376 7.95448,-80.5376 " />
    <polyline
       style="fill:none;stroke:#000000"
       id="polyline44"
       points="38.0455,-46.4156 7.95448,-46.4156 " />
    <text
       style="font-size:14px;text-anchor:middle;font-family:'Times,serif'"
       id="text46"
       font-size="14.00"
       y="-59.7766"
       x="23">Init</text>
  </g>
  <g
     class="node"
     id="node2"
     transform="translate(4.8506973,122.15956)">
    <title
       id="title49">wait</title>
    <ellipse
       style="fill:none;stroke:#000000"
       sodipodi:ry="18"
       sodipodi:rx="27"
       sodipodi:cy="-63.476601"
       sodipodi:cx="111"
       d="m 138,-63.476601 c 0,9.941126 -12.08831,18 -27,18 -14.911688,0 -27,-8.058874 -27,-18 0,-9.941125 12.088312,-18 27,-18 14.91169,0 27,8.058875 27,18 z"
       id="ellipse51"
       ry="18"
       rx="27"
       cy="-63.476601"
       cx="111" />
    <text
       style="font-size:14px;text-anchor:middle;font-family:'Times,serif'"
       id="text53"
       font-size="14.00"
       y="-59.7766"
       x="111">wait</text>
  </g>
  <g
     class="edge"
     id="edge1"
     transform="translate(4.8506973,122.15956)">
    <title
       id="title56">Init-&gt;wait</title>
    <path
       style="fill:none;stroke:#000000;marker-end:url(#Arrow1Lend)"
       inkscape:connector-curvature="0"
       id="path58"
       d="m 46.1471,-63.4766 c 8.389,0 28.392333,0 37.746533,0"
       sodipodi:nodetypes="cc" />
  </g>
  <g
     class="node"
     id="node3"
     transform="translate(4.8506973,67.500666)">
    <title
       id="title70">welcome</title>
    <polygon
       style="fill:none;stroke:#000000"
       id="polygon72"
       points="403.203,-54.4766 364.797,-54.4766 337.639,-43.9324 337.639,-29.0207 364.797,-18.4766 403.203,-18.4766 430.361,-29.0207 430.361,-29.0207 430.361,-43.9324 " />
    <text
       style="font-size:14px;text-anchor:middle;font-family:'Times,serif'"
       id="text74"
       font-size="14.00"
       y="-32.7766"
       x="384">welcome</text>
  </g>
  <text
     x="240.28952"
     y="40.736191"
     font-size="14.00"
     id="text83"
     style="font-size:14px;text-anchor:middle;font-family:'Times,serif'">personHere &amp; !personPrinter</text>
  <g
     class="node"
     id="node4"
     transform="translate(4.8506973,175.50087)">
    <title
       id="title95">gotoPrinter</title>
    <ellipse
       style="fill:none;stroke:#000000"
       sodipodi:ry="18"
       sodipodi:rx="50.091202"
       sodipodi:cy="-90.476601"
       sodipodi:cx="384"
       d="m 434.0912,-90.476601 c 0,9.941126 -22.42659,18 -50.0912,18 -27.66461,0 -50.0912,-8.058874 -50.0912,-18 0,-9.941129 22.42659,-17.999999 50.0912,-17.999999 27.66461,0 50.0912,8.05887 50.0912,17.999999 z"
       id="ellipse97"
       ry="18"
       rx="50.091202"
       cy="-90.476601"
       cx="384" />
    <text
       style="font-size:14px;text-anchor:middle;font-family:'Times,serif'"
       id="text99"
       font-size="14.00"
       y="-86.776604"
       x="384">gotoPrinter</text>
  </g>
  <text
     x="240.28952"
     y="72.946228"
     font-size="14.00"
     id="text108"
     style="font-size:14px;text-anchor:middle;font-family:'Times,serif'">personPrinter &amp; !personHere</text>
  <text
     x="237.95163"
     y="102.86855"
     font-size="14.00"
     id="text117"
     style="font-size:14px;text-anchor:middle;font-family:'Times,serif'">personHere &amp; personPrinter</text>
  <g
     class="node"
     id="node11"
     transform="translate(-1230.5159,339.61811)">
    <title
       id="title120">restart</title>
    <ellipse
       style="fill:none;stroke:#000000"
       sodipodi:ry="32.494202"
       sodipodi:rx="32.494202"
       sodipodi:cy="-74.476601"
       sodipodi:cx="1269"
       d="m 1301.4942,-74.476601 c 0,17.946052 -14.5481,32.494202 -32.4942,32.494202 -17.9461,0 -32.4942,-14.54815 -32.4942,-32.494202 0,-17.946052 14.5481,-32.494199 32.4942,-32.494199 17.9461,0 32.4942,14.548147 32.4942,32.494199 z"
       id="ellipse122"
       ry="32.494202"
       rx="32.494202"
       cy="-74.476601"
       cx="1269" />
    <polyline
       style="fill:none;stroke:#000000"
       id="polyline124"
       points="1290.49,-98.8494 1247.51,-98.8494 " />
    <polyline
       style="fill:none;stroke:#000000"
       id="polyline126"
       points="1290.49,-50.1038 1247.51,-50.1038 " />
    <text
       style="font-size:14px;text-anchor:middle;font-family:'Times,serif'"
       id="text128"
       font-size="14.00"
       y="-70.776604"
       x="1269">restart</text>
  </g>
  <g
     class="node"
     id="node5"
     transform="translate(4.3086037,175.50107)">
    <title
       id="title138">say_hello</title>
    <polygon
       style="fill:none;stroke:#000000"
       id="polygon140"
       points="544.324,-83.0207 572.252,-72.4766 611.748,-72.4766 639.676,-83.0207 639.676,-83.0207 639.676,-97.9324 611.748,-108.477 572.252,-108.477 544.324,-97.9324 " />
    <text
       style="font-size:14px;text-anchor:middle;font-family:'Times,serif'"
       id="text142"
       font-size="14.00"
       y="-86.776604"
       x="592">say_hello</text>
  </g>
  <text
     x="481.02527"
     y="81.09581"
     font-size="14.00"
     id="text151"
     style="font-size:14px;text-anchor:middle;font-family:'Times,serif'">personPrinter</text>
  <g
     class="node"
     id="node10"
     transform="translate(-994.02527,355.61811)">
    <title
       id="title154">gotoHome</title>
    <ellipse
       style="fill:none;stroke:#000000"
       sodipodi:ry="18"
       sodipodi:rx="48.1917"
       sodipodi:cy="-90.476601"
       sodipodi:cx="1150"
       d="m 1198.1917,-90.476601 c 0,9.941126 -21.5762,18 -48.1917,18 -26.6155,0 -48.1917,-8.058874 -48.1917,-18 0,-9.941129 21.5762,-17.999999 48.1917,-17.999999 26.6155,0 48.1917,8.05887 48.1917,17.999999 z"
       id="ellipse156"
       ry="18"
       rx="48.1917"
       cy="-90.476601"
       cx="1150" />
    <text
       style="font-size:14px;text-anchor:middle;font-family:'Times,serif'"
       id="text158"
       font-size="14.00"
       y="-86.776604"
       x="1150">gotoHome</text>
  </g>
  <text
     x="427.33102"
     y="115.66588"
     font-size="14.00"
     id="text167"
     style="font-size:14px;text-anchor:middle;font-family:'Times,serif'">!personPrinter</text>
  <text
     x="554.99994"
     y="147.987"
     font-size="14.00"
     id="text183"
     style="font-size:14px;text-anchor:middle;font-family:'Times,serif'">helpBringDoc</text>
  <text
     x="630.87195"
     y="147.99399"
     font-size="14.00"
     id="text199"
     style="font-size:14px;text-anchor:middle;font-family:'Times,serif'">helpTech</text>
  <text
     x="482.77219"
     y="147.99399"
     font-size="14.00"
     id="text208"
     style="font-size:14px;text-anchor:middle;font-family:'Times,serif'">noHelp</text>
  <g
     class="node"
     id="node6"
     transform="translate(-206.69139,382.61831)">
    <title
       id="title170">gotoOffice</title>
    <ellipse
       style="fill:none;stroke:#000000"
       sodipodi:ry="18"
       sodipodi:rx="48.992599"
       sodipodi:cy="-144.47701"
       sodipodi:cx="803"
       d="m 851.9926,-144.47701 c 0,9.94113 -21.93473,18 -48.9926,18 -27.05787,0 -48.9926,-8.05887 -48.9926,-18 0,-9.94112 21.93473,-18 48.9926,-18 27.05787,0 48.9926,8.05888 48.9926,18 z"
       id="ellipse172"
       ry="18"
       rx="48.992599"
       cy="-144.47701"
       cx="803" />
    <text
       style="font-size:14px;text-anchor:middle;font-family:'Times,serif'"
       id="text174"
       font-size="14.00"
       y="-140.77699"
       x="803">gotoOffice</text>
  </g>
  <g
     class="node"
     id="node7"
     transform="translate(-206.69139,382.61831)">
    <title
       id="title186">gotoTech</title>
    <ellipse
       style="fill:none;stroke:#000000"
       sodipodi:ry="18"
       sodipodi:rx="44.393002"
       sodipodi:cy="-90.476601"
       sodipodi:cx="803"
       d="m 847.393,-90.476601 c 0,9.941126 -19.87542,18 -44.393,18 -24.51758,0 -44.393,-8.058874 -44.393,-18 0,-9.941129 19.87542,-17.999999 44.393,-17.999999 24.51758,0 44.393,8.05887 44.393,17.999999 z"
       id="ellipse188"
       ry="18"
       rx="44.393002"
       cy="-90.476601"
       cx="803" />
    <text
       style="font-size:14px;text-anchor:middle;font-family:'Times,serif'"
       id="text190"
       font-size="14.00"
       y="-86.776604"
       x="803">gotoTech</text>
  </g>
  <g
     class="node"
     id="node8"
     transform="translate(-571.96655,382.61831)">
    <title
       id="title211">giveDocument</title>
    <polygon
       style="fill:none;stroke:#000000"
       id="polygon213"
       points="1064.48,-151.932 1024.36,-162.477 967.635,-162.477 927.522,-151.932 927.522,-137.021 967.635,-126.477 1024.36,-126.477 1064.48,-137.021 1064.48,-137.021 " />
    <text
       style="font-size:14px;text-anchor:middle;font-family:'Times,serif'"
       id="text215"
       font-size="14.00"
       y="-140.77699"
       x="996">giveDocument</text>
  </g>
  <g
     class="node"
     id="node9"
     transform="translate(-571.96655,382.61831)">
    <title
       id="title225">explain</title>
    <polygon
       style="fill:none;stroke:#000000"
       id="polygon227"
       points="1035.29,-97.9324 1012.28,-108.477 979.725,-108.477 956.709,-97.9324 956.709,-83.0207 979.725,-72.4766 1012.28,-72.4766 1035.29,-83.0207 1035.29,-83.0207 " />
    <text
       style="font-size:14px;text-anchor:middle;font-family:'Times,serif'"
       id="text229"
       font-size="14.00"
       y="-86.776604"
       x="996">explain</text>
  </g>
  <g
     class="edge"
     id="edge18"
     transform="translate(-1230.5159,339.44541)">
    <title
       id="title260">restart-&gt;restart</title>
  </g>
  <path
     style="fill:none;stroke:#000000;stroke-width:0.80158681px;stroke-linecap:butt;stroke-linejoin:miter;stroke-opacity:1;marker-end:url(#Arrow1Lstart)"
     d="m 107.79221,265.14151 c -37.25537,0 -36.445471,0 -36.445471,0"
     id="path3436"
     inkscape:connector-curvature="0" />
  <path
     style="fill:none;stroke:#000000;stroke-width:0.80158681px;stroke-linecap:butt;stroke-linejoin:miter;stroke-opacity:1;marker-end:url(#Arrow1Lend)"
     d="M 133.64426,45.019129 C 169.54843,14.141542 250.69186,31.375545 341.88845,31.375545"
     id="path4908"
     inkscape:connector-curvature="0" />
  <path
     style="fill:none;stroke:#000000;stroke-width:0.80158681px;stroke-linecap:butt;stroke-linejoin:miter;stroke-opacity:1;marker-end:url(#Arrow1Lend)"
     d="m 124.48217,75.178632 c 12.9255,39.494588 104.1221,66.063678 224.76011,20.824427"
     id="path5278"
     inkscape:connector-curvature="0"
     sodipodi:nodetypes="cc" />
  <path
     style="fill:none;stroke:#000000;stroke-width:0.80158681px;stroke-linecap:butt;stroke-linejoin:miter;stroke-opacity:1;marker-end:url(#Arrow1Lend)"
     d="m 139.02336,67.818277 c 22.08106,21.722024 138.15203,17.413527 199.44767,17.413527"
     id="path5648"
     inkscape:connector-curvature="0"
     sodipodi:nodetypes="cc" />
  <path
     style="fill:none;stroke:#000000;stroke-width:0.80158681px;stroke-linecap:butt;stroke-linejoin:miter;stroke-opacity:1;marker-end:url(#Arrow1Lend)"
     d="m 387.32258,102.26532 c 0,48.88071 -149.23161,47.97472 -212.76905,146.15051"
     id="path5834"
     inkscape:connector-curvature="0"
     sodipodi:nodetypes="cc" />
  <path
     style="fill:none;stroke:#000000;stroke-width:0.80158681px;stroke-linecap:butt;stroke-linejoin:miter;stroke-opacity:1;marker-end:url(#Arrow1Lend)"
     d="m 438.64463,85.263948 c 97.22603,0 78.12369,0 110.45073,0"
     id="path6026"
     inkscape:connector-curvature="0" />
  <path
     style="fill:none;stroke:#000000;stroke-width:0.80158681px;stroke-linecap:butt;stroke-linejoin:miter;stroke-opacity:1;marker-end:url(#Arrow1Lend)"
     d="M 557.25816,95.557039 C 473.7419,174.4214 331.01214,118.47935 191.04888,253.02171"
     id="path6215"
     inkscape:connector-curvature="0"
     sodipodi:nodetypes="cc" />
  <path
     style="fill:none;stroke:#000000;stroke-width:0.80158681px;stroke-linecap:butt;stroke-linejoin:miter;stroke-opacity:1;marker-end:url(#Arrow1Lend)"
     d="m 596.30861,102.65199 c 0,92.08308 0,74.93996 0,117.06307"
     id="path6407"
     inkscape:connector-curvature="0"
     sodipodi:nodetypes="cc" />
  <path
     style="fill:none;stroke:#000000;stroke-width:0.80158681px;stroke-linecap:butt;stroke-linejoin:miter;stroke-opacity:1;marker-end:url(#Arrow1Lend)"
     d="m 636.15136,95.409359 c 20.6006,31.170901 56.3953,106.419631 -5.65014,185.039601"
     id="path6595"
     inkscape:connector-curvature="0"
     sodipodi:nodetypes="cc" />
  <path
     style="fill:none;stroke:#000000;stroke-width:0.80158681px;stroke-linecap:butt;stroke-linejoin:miter;stroke-opacity:1;marker-end:url(#Arrow1Lend)"
     d="m 434.4813,31.140648 c 189.06421,0 241.96301,-3.918428 243.92222,37.225081 1.95922,41.143501 0.97961,227.515031 0.97961,239.270321 0,11.75529 0,27.42901 -32.32705,27.42901 -32.32704,0 -471.37826,-1.68396 -512.33462,-0.9796 C 93.7651,334.7898 55.600769,293.01877 55.600769,293.01877"
     id="path6781"
     inkscape:connector-curvature="0"
     sodipodi:nodetypes="cssszc" />
  <path
     style="fill:none;stroke:#000000;stroke-width:0.80158681px;stroke-linecap:butt;stroke-linejoin:miter;stroke-opacity:1;marker-end:url(#Arrow1Lend)"
     d="m 547.2586,238.04683 c -12.0002,0 -48.85792,0 -54.85801,0"
     id="path6967"
     inkscape:connector-curvature="0" />
  <path
     style="fill:none;stroke:#000000;stroke-width:0.80158681px;stroke-linecap:butt;stroke-linejoin:miter;stroke-opacity:1;marker-end:url(#Arrow1Lend)"
     d="m 551.78035,291.95586 c -15.41229,0 -88.31759,0 -88.31759,0"
     id="path7153"
     inkscape:connector-curvature="0" />
  <path
     style="fill:none;stroke:#000000;stroke-width:0.80158681px;stroke-linecap:butt;stroke-linejoin:miter;stroke-opacity:1;marker-end:url(#Arrow1Lend)"
     d="m 384.52133,291.80278 c -21.79626,0 -125.87953,0 -185.63558,-18.61254"
     id="path7341"
     inkscape:connector-curvature="0"
     sodipodi:nodetypes="cc" />
  <path
     style="fill:none;stroke:#000000;stroke-width:0.80158681px;stroke-linecap:butt;stroke-linejoin:miter;stroke-opacity:1;marker-end:url(#Arrow1Lend)"
     d="m 355.37802,237.92438 c -32.57195,0 -105.7976,0 -156.24737,19.34724"
     id="path7527"
     inkscape:connector-curvature="0"
     sodipodi:nodetypes="cc" />
  <path
     style="fill:none;stroke:#000000;stroke-width:0.80158681px;stroke-linecap:butt;stroke-linejoin:miter;stroke-opacity:1;marker-end:url(#Arrow1Lend)"
     d="m 104.784,42.140355 c -3.67354,-9.796073 -1.35419,-19.313027 9.21443,-19.313027 10.56861,0 11.23487,7.435288 10.13281,18.823223"
     id="path7715"
     inkscape:connector-curvature="0"
     sodipodi:nodetypes="czc" />
  <path
     style="fill:none;stroke:#000000;stroke-width:0.80158675px;stroke-linecap:butt;stroke-linejoin:miter;stroke-opacity:1;marker-end:url(#Arrow1Lend)"
     d="m 27.65789,234.13725 c -3.67354,-9.79607 -1.35419,-19.31302 9.21443,-19.31302 10.56861,0 11.23487,7.43529 10.13281,18.82322"
     id="path7715-0"
     inkscape:connector-curvature="0"
     sodipodi:nodetypes="czc" />
</svg>
